<?xml version="1.0" encoding="utf-8"?>
<!-- Generator: Adobe Illustrator 16.0.0, SVG Export Plug-In . SVG Version: 6.00 Build 0)  -->
<!DOCTYPE svg PUBLIC "-//W3C//DTD SVG 1.1//EN" "http://www.w3.org/Graphics/SVG/1.1/DTD/svg11.dtd">
<svg version="1.1" id="Layer_1" xmlns="http://www.w3.org/2000/svg" xmlns:xlink="http://www.w3.org/1999/xlink" x="0px" y="0px"
	 width="144px" height="144px" viewBox="0 0 144 144" enable-background="new 0 0 144 144" xml:space="preserve">
<g>
	<g>
		<linearGradient id="SVGID_1_" gradientUnits="userSpaceOnUse" x1="82.5342" y1="23.6763" x2="45.9192" y2="83.7905">
			<stop  offset="0" style="stop-color:#00E6FF"/>
			<stop  offset="1" style="stop-color:#0010D4"/>
		</linearGradient>
		<path fill="url(#SVGID_1_)" d="M66.937,21.699c-2.966,0.641-4.958,4.269-4.933,7.696c0.026,3.427,1.36,5.503,3.04,5.362
			c1.68-0.14,2.185-2.48,2.523-3.577c0.34-1.098,1.726-1.842,2.695-0.325c0.969,1.517,4.646,13.471,4.023,18.375
			c-0.622,4.905-0.05,5.109,2.262,3.741s10.071-5.555,13.351-10.719c3.279-5.165,0.977-9.794-1.709-9.853
			c-2.687-0.059-8.703-0.036-9.943,3.341c-1.241,3.377,0.652,4.57,1.724,4.29c1.07-0.28,3.544-0.792,3.544-0.792
			s1.145,0.208,0.778,1.722c-0.367,1.513-1.589,3.505-3.212,5.493c-1.623,1.987-4.012,4.103-4.123,2.915s-0.186-9.998-2.24-18.153
			c-1.823-7.234-4.201-9.626-6.785-9.626C67.603,21.588,67.271,21.626,66.937,21.699"/>
		<linearGradient id="SVGID_2_" gradientUnits="userSpaceOnUse" x1="92.999" y1="30.0508" x2="56.3836" y2="90.1657">
			<stop  offset="0" style="stop-color:#00E6FF"/>
			<stop  offset="1" style="stop-color:#0010D4"/>
		</linearGradient>
		<path fill="url(#SVGID_2_)" d="M81.43,54.214c-0.707,1.53,1.078,3.124,1.865,3.96c0.786,0.836,0.751,2.41-1.048,2.503
			c-1.798,0.095-14.01-2.607-17.968-5.569c-3.958-2.962-4.418-2.566-4.369,0.12c0.05,2.687-0.14,11.501,2.733,16.903
			c2.874,5.401,8.036,5.683,9.413,3.375c1.378-2.307,4.327-7.55,2.002-10.296c-2.325-2.746-4.298-1.688-4.582-0.618
			c-0.284,1.069-1.06,3.473-1.06,3.473s-0.747,0.893-1.882-0.173c-1.135-1.066-2.264-3.112-3.191-5.504
			c-0.928-2.393-1.589-5.515-0.501-5.025c1.089,0.489,8.787,4.773,16.894,7.011c8.106,2.237,11.21,0.826,12.116-2.07
			s-1.267-6.419-4.259-8.088c-1.466-0.817-2.805-1.202-3.872-1.202C82.608,53.015,81.79,53.433,81.43,54.214"/>
		<linearGradient id="SVGID_3_" gradientUnits="userSpaceOnUse" x1="69.998" y1="16.0405" x2="33.3829" y2="76.155">
			<stop  offset="0" style="stop-color:#00E6FF"/>
			<stop  offset="1" style="stop-color:#0010D4"/>
		</linearGradient>
		<path fill="url(#SVGID_3_)" d="M42.592,40.436c1.34,2.329,4.474,7.464,8.005,6.778c3.532-0.686,3.573-2.924,2.779-3.695
			c-0.795-0.771-2.513-2.623-2.513-2.623s-0.414-1.087,1.07-1.557c1.484-0.47,3.821-0.455,6.362-0.095
			c2.54,0.36,5.587,1.309,4.628,2.019s-8.458,5.333-14.372,11.313c-5.913,5.979-6.198,9.376-4.115,11.582
			c2.084,2.206,6.22,2.033,9.139,0.236c2.919-1.795,4.004-4.011,3.015-5.376c-0.99-1.365-3.253-0.585-4.367-0.308
			c-1.114,0.278-2.468-0.522-1.673-2.137c0.797-1.616,9.121-10.948,13.64-12.955c4.52-2.006,4.398-2.601,2.03-3.87
			s-9.966-5.743-16.083-5.875c-0.09-0.002-0.181-0.003-0.271-0.003C43.938,33.869,41.272,38.141,42.592,40.436"/>
		<linearGradient id="SVGID_4_" gradientUnits="userSpaceOnUse" x1="83.1123" y1="24.0283" x2="46.4962" y2="84.1443">
			<stop  offset="0" style="stop-color:#00E6FF"/>
			<stop  offset="1" style="stop-color:#0010D4"/>
		</linearGradient>
		<path fill="url(#SVGID_4_)" d="M64.202,49.482c0,1.88,1.525,3.405,3.405,3.405c1.881,0,3.405-1.524,3.405-3.405
			c0-1.881-1.524-3.405-3.405-3.405C65.728,46.077,64.202,47.601,64.202,49.482"/>
	</g>
	<g>
		<g>
			<g>
				<path d="M44.29,75.226v12.419c0,5.143-2.685,7.697-8.021,7.665c-5.304-0.097-7.956-2.976-7.956-8.667
					c0-5.822,2.265-8.798,6.824-8.959c2.135,0,3.784,0.873,4.884,2.652v-7.277h2.135C43.319,73.059,44.29,74.062,44.29,75.226z
					 M32.744,86.448c-0.032,3.46,1.132,5.207,3.59,5.207s3.687-1.747,3.687-5.207c-0.097-3.299-1.293-4.916-3.622-4.916
					C34.07,81.532,32.873,83.149,32.744,86.448z"/>
				<path d="M59.265,73.059l7.891,21.992h-4.754l-1.455-4.495H52.44l-1.455,4.495h-4.819l7.342-20.537
					c0.323-0.97,1.034-1.455,2.134-1.455H59.265z M53.637,86.836h6.048l-3.04-9.347L53.637,86.836z"/>
				<path d="M73.625,99.611c0,1.423-0.712,2.135-2.135,2.135h-2.167V85.381c0.226-5.11,2.878-7.633,8.021-7.633
					c5.305,0,7.956,2.879,7.956,8.635c0,5.822-2.264,8.83-6.824,8.991c-2.134,0-3.751-0.873-4.851-2.651V99.611z M77.279,91.525
					c2.328,0,3.525-1.649,3.622-4.948c0-3.46-1.229-5.175-3.687-5.175s-3.622,1.715-3.59,5.175
					C73.754,89.876,74.951,91.525,77.279,91.525z"/>
				<path d="M91.607,99.611c0,1.423-0.712,2.135-2.135,2.135h-2.167V85.381c0.227-5.11,2.879-7.633,8.021-7.633
					c5.304,0,7.956,2.879,7.956,8.635c0,5.822-2.265,8.83-6.825,8.991c-2.134,0-3.751-0.873-4.851-2.651V99.611z M95.262,91.525
					c2.329,0,3.525-1.649,3.622-4.948c0-3.46-1.229-5.175-3.687-5.175s-3.622,1.715-3.59,5.175
					C91.736,89.876,92.934,91.525,95.262,91.525z"/>
			</g>
		</g>
		<g>
			<g>
				<path d="M44.146,115.911c0-1.067-0.646-1.778-2.005-2.167c-1.294-0.388-2.781-0.776-4.366-1.196
					c-4.302-1.1-6.436-3.104-6.436-6.016c0.097-4.625,2.846-6.889,8.279-6.856c5.175,0,7.859,2.264,8.117,6.824h-2.522
					c-0.938,0-1.585-0.453-2.005-1.294c-0.744-1.262-2.07-1.876-3.979-1.876c-2.328,0.032-3.492,0.906-3.59,2.588
					c0,1.391,1.391,2.393,4.27,3.04c1.649,0.388,3.396,0.873,5.239,1.52c2.458,0.841,3.622,2.652,3.493,5.434
					c-0.259,4.302-3.17,6.437-8.732,6.437c-5.821,0-8.765-2.426-8.895-7.213h4.366c0.162,2.329,1.649,3.493,4.528,3.493
					C42.788,118.628,44.179,117.723,44.146,115.911z"/>
				<path d="M55.596,107.987h-0.452v9.477c0,0.711,0.42,1.1,1.261,1.1h1.326v3.267c-1.391,0.129-2.91,0.129-4.527-0.032
					c-1.617-0.162-2.394-1.165-2.361-3.073v-18.693h2.231c1.132,0,2.07,1.035,2.07,2.167v2.717h2.587v0.938
					C57.73,107.082,56.793,107.987,55.596,107.987z"/>
				<path d="M73.935,115.2c0,2.942-0.744,4.883-2.265,5.821c-1.52,0.873-3.202,1.326-5.045,1.326c-1.779,0-3.364-0.485-4.852-1.456
					c-1.488-0.938-2.231-2.813-2.231-5.691v-10.285h4.301v11.158c0,1.908,0.971,2.846,2.911,2.846s2.911-0.938,2.911-2.846v-9.023
					c-0.032-1.423,0.646-2.135,2.069-2.135h2.2V115.2z"/>
				<path d="M91.593,102.198v12.42c0,5.142-2.684,7.696-8.021,7.664c-5.304-0.097-7.956-2.976-7.956-8.667
					c0-5.822,2.264-8.797,6.824-8.959c2.135,0,3.784,0.873,4.884,2.652v-7.277h2.134C90.623,100.031,91.593,101.034,91.593,102.198z
					 M80.047,113.421c-0.032,3.461,1.132,5.207,3.59,5.207s3.688-1.746,3.688-5.207c-0.098-3.299-1.294-4.916-3.623-4.916
					C81.373,108.505,80.177,110.122,80.047,113.421z"/>
				<path d="M95.766,100.031c1.423,0,2.102,0.712,2.069,2.103v1.261h-4.301v-3.363H95.766z M95.766,104.915
					c1.391,0,2.069,0.679,2.069,2.069v15.04h-4.301v-17.109H95.766z"/>
				<path d="M115.688,113.55c0,5.887-2.619,8.862-7.794,8.862s-7.762-2.976-7.762-8.862c0-5.95,2.587-8.894,7.762-8.894
					S115.688,107.6,115.688,113.55z M104.498,113.55c0.032,3.332,1.164,5.014,3.363,5.014s3.299-1.746,3.331-5.143
					c0-3.331-1.1-4.98-3.299-4.98C105.63,108.44,104.498,110.154,104.498,113.55z"/>
			</g>
		</g>
	</g>
</g>
</svg>
